<svg width="52" height="52" viewBox="0 0 52 52" fill="none" xmlns="http://www.w3.org/2000/svg">
<path d="M35.3293 31.6934C36.7902 30.4141 36.3245 28.026 34.491 27.3949L20.7662 22.6704C18.9327 22.0392 17.1064 23.6383 17.479 25.5488L20.2678 39.8493C20.6403 41.7598 22.9323 42.5487 24.3933 41.2694L35.3293 31.6934Z" fill="#7966FA"/>
<path fill-rule="evenodd" clip-rule="evenodd" d="M13.7158 0.617254C14.5352 -0.205751 15.8637 -0.205751 16.6831 0.617254L25.6607 9.63431L30.4419 4.83213C31.2613 4.00913 32.5898 4.00912 33.4092 4.83213C34.2286 5.65514 34.2286 6.98949 33.4092 7.8125L29.8571 11.3802H34.8929C43.2363 11.3802 50 18.1736 50 26.5537V35.8264C50 44.2066 43.2363 51 34.8929 51H18.1071C9.7637 51 3 44.2066 3 35.8264V26.5537C3 18.1736 9.7637 11.3802 18.1071 11.3802H21.4643L13.7158 3.59762C12.8964 2.77462 12.8964 1.44026 13.7158 0.617254ZM18.1071 15.595H34.8929C40.9187 15.595 45.8036 20.5014 45.8036 26.5537V35.8264C45.8036 41.8788 40.9187 46.7851 34.8929 46.7851H18.1071C12.0813 46.7851 7.19643 41.8788 7.19643 35.8264V26.5537C7.19643 20.5014 12.0813 15.595 18.1071 15.595Z" fill="#7966FA"/>
</svg>
