<svg width="34" height="34" viewBox="0 0 34 34" fill="none" xmlns="http://www.w3.org/2000/svg">
<path d="M32.9375 17C32.9442 19.5303 32.1233 21.9934 30.6 24.0138C30.5161 24.1255 30.4111 24.2195 30.2908 24.2905C30.1706 24.3615 30.0376 24.4082 29.8993 24.4278C29.7611 24.4474 29.6203 24.4396 29.4851 24.4048C29.3498 24.37 29.2228 24.3089 29.1112 24.225C28.9995 24.1411 28.9055 24.0361 28.8345 23.9158C28.7635 23.7956 28.7168 23.6626 28.6972 23.5243C28.6776 23.3861 28.6854 23.2453 28.7202 23.1101C28.755 22.9748 28.8161 22.8478 28.9 22.7362C30.1469 21.0843 30.8186 19.0696 30.8125 17C30.8125 14.4639 29.805 12.0316 28.0117 10.2383C26.2184 8.44497 23.7861 7.4375 21.25 7.4375C18.7139 7.4375 16.2816 8.44497 14.4883 10.2383C12.695 12.0316 11.6875 14.4639 11.6875 17C11.6875 17.2818 11.5756 17.552 11.3763 17.7513C11.177 17.9506 10.9068 18.0625 10.625 18.0625C10.3432 18.0625 10.073 17.9506 9.8737 17.7513C9.67444 17.552 9.5625 17.2818 9.5625 17C9.56198 15.9278 9.70901 14.8606 9.99945 13.8284C9.85469 13.8125 9.70859 13.8125 9.5625 13.8125C7.87174 13.8125 6.25024 14.4841 5.05469 15.6797C3.85915 16.8752 3.1875 18.4967 3.1875 20.1875C3.1875 21.8783 3.85915 23.4998 5.05469 24.6953C6.25024 25.8909 7.87174 26.5625 9.5625 26.5625H12.75C13.0318 26.5625 13.302 26.6744 13.5013 26.8737C13.7006 27.073 13.8125 27.3432 13.8125 27.625C13.8125 27.9068 13.7006 28.177 13.5013 28.3763C13.302 28.5756 13.0318 28.6875 12.75 28.6875H9.5625C8.39398 28.6878 7.23796 28.4471 6.16663 27.9805C5.0953 27.514 4.13168 26.8315 3.33595 25.9758C2.54022 25.1201 1.92947 24.1095 1.54184 23.0071C1.15422 21.9048 0.998049 20.7344 1.08308 19.5689C1.16812 18.4035 1.49254 17.2681 2.03607 16.2337C2.5796 15.1993 3.33058 14.2881 4.2421 13.557C5.15362 12.8258 6.2061 12.2905 7.3338 11.9844C8.46151 11.6782 9.64023 11.6079 10.7963 11.7778C11.9736 9.42325 13.9112 7.53508 16.2955 6.41914C18.6797 5.30319 21.3708 5.02482 23.933 5.62913C26.4951 6.23344 28.7783 7.68503 30.4125 9.74877C32.0468 11.8125 32.9365 14.3675 32.9375 17ZM20.9392 16.2483C20.8405 16.1495 20.7234 16.0711 20.5944 16.0177C20.4654 15.9642 20.3271 15.9367 20.1875 15.9367C20.0479 15.9367 19.9096 15.9642 19.7806 16.0177C19.6516 16.0711 19.5345 16.1495 19.4358 16.2483L15.1858 20.4983C15.0871 20.597 15.0088 20.7142 14.9553 20.8432C14.9019 20.9722 14.8744 21.1104 14.8744 21.25C14.8744 21.3896 14.9019 21.5278 14.9553 21.6568C15.0088 21.7858 15.0871 21.903 15.1858 22.0017C15.3851 22.2011 15.6556 22.3131 15.9375 22.3131C16.0771 22.3131 16.2153 22.2856 16.3443 22.2322C16.4733 22.1787 16.5905 22.1004 16.6892 22.0017L19.125 19.5646V27.625C19.125 27.9068 19.2369 28.177 19.4362 28.3763C19.6355 28.5756 19.9057 28.6875 20.1875 28.6875C20.4693 28.6875 20.7395 28.5756 20.9388 28.3763C21.1381 28.177 21.25 27.9068 21.25 27.625V19.5646L23.6858 22.0017C23.7845 22.1004 23.9017 22.1787 24.0307 22.2322C24.1597 22.2856 24.2979 22.3131 24.4375 22.3131C24.5771 22.3131 24.7153 22.2856 24.8443 22.2322C24.9733 22.1787 25.0905 22.1004 25.1892 22.0017C25.2879 21.903 25.3662 21.7858 25.4197 21.6568C25.4731 21.5278 25.5006 21.3896 25.5006 21.25C25.5006 21.1104 25.4731 20.9722 25.4197 20.8432C25.3662 20.7142 25.2879 20.597 25.1892 20.4983L20.9392 16.2483Z" fill="#7C3AED"/>
</svg>
